# xmcd CD database file
#
# Track frame offsets:
#	150
#	13613
#	29287
#	48312
#	68967
#	82048
#	99629
#	115794
#	134958
#	145542
#	161128
#	171649
#	182964
#	201961
#
# Disc length: 2951 seconds
#
# Revision: 0
# Processed by: cddbd v1.5.1PL2 Copyright (c) Steve Scherf et al.
# Submitted via: CDex 1.51
#
DISCID=d10b850e
DTITLE=Texas Lightning - Meanwhile, Back At the Ranch...
DYEAR=2005
DGENRE=Country
TTITLE0=Bad Case of Lovin' You
TTITLE1=Like a Virgin
TTITLE2=Kiss
TTITLE3=Over the Mountains (Über den Wolken)
TTITLE4=C'est la vie
TTITLE5=Highway to Hell
TTITLE6=Dancing Queen
TTITLE7=Man In the Mirror
TTITLE8=Norwegian Wood
TTITLE9=Smoke, Smoke, Smoke (That Cigarette)
TTITLE10=Walkin' After Midnight
TTITLE11=Raindrops Keep Falling On My Head
TTITLE12=Walk On the Wild Side
TTITLE13=Blue Bayou
EXTD=YEAR: 2005
EXTT0=
EXTT1=
EXTT2=
EXTT3=
EXTT4=
EXTT5=
EXTT6=
EXTT7=
EXTT8=
EXTT9=
EXTT10=
EXTT11=
EXTT12=
EXTT13=
PLAYORDER=
